<?xml version="1.0" standalone="no"?>
<!DOCTYPE svg PUBLIC "-//W3C//DTD SVG 20010904//EN"
 "http://www.w3.org/TR/2001/REC-SVG-20010904/DTD/svg10.dtd">
<svg version="1.0" xmlns="http://www.w3.org/2000/svg"
 width="1020.000000pt" height="918.000000pt" viewBox="0 0 1020.000000 918.000000"
 preserveAspectRatio="xMidYMid meet">

<g transform="translate(0.000000,918.000000) scale(0.100000,-0.100000)"
fill="#000000" stroke="none">
<path d="M7704 9169 c-257 -23 -577 -133 -731 -252 -207 -159 -737 -680 -3424
-3367 -2474 -2474 -3185 -3194 -3250 -3294 -49 -75 -51 -109 -6 -168 62 -81
235 -181 487 -283 140 -56 223 -96 227 -111 2 -6 -151 -168 -340 -360 -673
-686 -667 -679 -667 -776 0 -74 25 -124 92 -190 146 -142 452 -290 703 -339
109 -22 447 -19 555 5 197 43 425 139 545 230 105 80 239 208 779 740 l529
521 126 26 c327 68 674 188 1042 359 l171 80 1076 0 1075 0 140 -138 c76 -75
242 -243 368 -373 l229 -237 10 -203 c13 -265 24 -318 97 -464 121 -241 291
-397 552 -505 98 -40 185 -50 476 -53 276 -2 285 -1 339 63 34 41 43 82 51
220 13 207 -20 424 -89 595 -96 237 -283 431 -519 540 -101 46 -152 54 -402
65 l-220 10 -200 204 c-195 199 -236 248 -221 263 4 5 629 9 1389 11 l1382 3
47 47 c80 78 96 138 57 219 -11 24 -39 59 -62 78 l-41 35 -1025 1 c-1021 0
-1665 9 -1679 23 -11 12 48 57 145 111 284 159 682 458 756 567 49 73 53 103
26 191 -23 76 -57 117 -96 117 -12 0 -25 5 -28 10 -8 13 -72 13 -80 0 -3 -6
-17 -10 -31 -10 -13 0 -24 -4 -24 -8 0 -4 -14 -16 -30 -25 -17 -10 -57 -45
-91 -78 -33 -32 -64 -59 -69 -59 -5 0 -25 -16 -44 -35 -20 -19 -39 -35 -44
-35 -5 0 -23 -13 -40 -30 -18 -16 -35 -30 -39 -30 -5 0 -24 -14 -43 -30 -19
-16 -41 -30 -47 -30 -7 0 -13 -4 -13 -8 0 -5 -12 -15 -27 -23 -16 -8 -37 -22
-47 -32 -11 -9 -26 -17 -33 -17 -7 0 -13 -4 -13 -9 0 -5 -8 -11 -17 -14 -18
-6 -73 -37 -83 -47 -3 -3 -24 -15 -47 -27 -24 -13 -62 -33 -85 -45 -24 -13
-44 -26 -46 -30 -2 -5 -12 -8 -23 -8 -10 0 -19 -4 -19 -10 0 -5 -7 -10 -15
-10 -8 0 -24 -4 -35 -10 -11 -5 -29 -15 -40 -20 -11 -6 -27 -10 -35 -10 -8 0
-15 -4 -15 -10 0 -5 -9 -10 -20 -10 -11 0 -20 -4 -20 -8 0 -5 -22 -15 -50 -22
-27 -7 -50 -17 -50 -22 0 -4 -11 -8 -24 -8 -14 0 -28 -5 -31 -10 -3 -5 -16
-10 -29 -10 -12 0 -26 -4 -31 -8 -6 -5 -30 -14 -55 -21 -25 -7 -53 -17 -62
-22 -10 -5 -29 -9 -43 -9 -14 0 -25 -4 -25 -10 0 -5 -15 -10 -34 -10 -19 0
-37 -4 -40 -9 -6 -8 -36 -15 -121 -27 -22 -4 -44 -10 -50 -15 -5 -5 -28 -9
-51 -9 -24 0 -46 -4 -49 -10 -3 -5 -30 -10 -60 -10 -30 0 -57 -4 -60 -10 -3
-5 -35 -10 -70 -10 -35 0 -75 -4 -88 -9 -14 -5 -194 -13 -401 -17 -324 -6
-376 -5 -376 7 0 8 14 23 31 33 17 10 49 37 72 60 23 22 67 61 97 86 69 57
194 182 246 246 21 27 56 66 77 86 20 20 37 40 37 45 0 5 16 27 35 48 20 21
43 51 53 67 9 15 20 28 24 28 4 0 8 6 8 13 0 6 14 28 30 47 16 19 30 39 30 43
0 4 9 17 20 29 11 12 20 28 20 35 0 7 5 13 10 13 6 0 10 6 10 13 0 7 9 23 20
35 11 12 20 28 20 37 0 8 5 15 10 15 6 0 10 9 10 19 0 11 3 21 8 23 10 4 35
49 78 138 20 41 40 83 45 92 5 10 9 25 9 33 0 8 5 15 10 15 6 0 10 9 10 20 0
11 5 20 10 20 6 0 10 9 10 20 0 11 5 29 10 40 6 11 15 29 20 40 6 11 10 29 10
40 0 11 5 20 10 20 6 0 10 14 10 30 0 17 5 30 10 30 6 0 10 14 10 30 0 17 5
30 10 30 6 0 10 13 10 29 0 17 5 33 10 36 6 3 10 22 10 41 0 19 5 34 10 34 6
0 10 18 10 40 0 22 4 40 9 40 5 0 12 19 15 43 3 23 8 62 11 87 3 25 10 54 15
65 5 11 12 47 15 80 3 33 10 110 16 170 26 259 8 653 -41 895 -6 30 -13 73
-17 95 -3 22 -9 44 -14 50 -5 5 -9 24 -9 42 0 18 -4 33 -10 33 -5 0 -10 15
-10 34 0 19 -4 38 -10 41 -5 3 -10 19 -10 36 0 16 -4 29 -10 29 -5 0 -10 14
-10 30 0 17 -4 30 -10 30 -5 0 -10 14 -10 30 0 17 -4 30 -10 30 -5 0 -10 9
-10 20 0 11 -4 28 -9 38 -5 9 -14 31 -21 47 -7 17 -16 38 -21 47 -5 10 -9 25
-9 33 0 8 -4 15 -10 15 -5 0 -10 7 -10 15 0 8 -4 23 -9 33 -9 15 -75 149 -105
209 -6 13 -14 23 -18 23 -5 0 -8 9 -8 20 0 11 -4 20 -9 20 -5 0 -11 8 -14 18
-7 22 -37 71 -59 96 -10 11 -18 26 -18 33 0 7 -4 13 -10 13 -5 0 -10 6 -10 13
0 6 -14 28 -30 47 -16 19 -30 38 -30 43 0 4 -13 21 -30 39 -16 17 -30 35 -30
41 0 5 -8 17 -18 26 -10 9 -29 32 -42 51 -13 19 -37 47 -53 62 l-28 27 713
713 c392 392 729 724 748 738 19 13 44 32 54 42 11 10 26 18 33 18 7 0 13 3
13 8 0 4 10 12 23 18 12 7 49 26 82 43 33 17 68 31 78 31 9 0 17 4 17 8 0 4
21 13 48 21 26 7 56 16 67 21 67 28 199 44 365 43 171 -1 258 -8 275 -24 5 -5
24 -9 41 -9 18 0 36 -4 39 -10 3 -5 19 -10 36 -10 16 0 29 -4 29 -8 0 -5 23
-15 50 -22 28 -7 50 -17 50 -22 0 -4 9 -8 20 -8 11 0 20 -4 20 -10 0 -5 9 -10
20 -10 11 0 20 -4 20 -9 0 -5 8 -11 18 -14 18 -6 73 -38 82 -47 3 -3 21 -17
40 -30 19 -13 37 -27 40 -30 3 -3 30 -25 60 -50 61 -49 80 -68 119 -120 14
-19 38 -48 54 -64 15 -16 27 -35 27 -42 0 -8 4 -14 8 -14 5 0 15 -12 23 -27 8
-16 17 -30 20 -33 3 -3 25 -45 49 -95 23 -49 46 -98 51 -107 5 -10 9 -27 9
-38 0 -11 4 -20 9 -20 5 0 11 -15 14 -32 4 -18 9 -49 12 -68 4 -19 10 -44 15
-55 20 -46 24 -235 24 -1035 1 -983 -7 -1134 -74 -1470 -6 -30 -14 -72 -17
-93 -3 -20 -9 -40 -14 -43 -5 -3 -9 -23 -9 -45 0 -21 -4 -39 -10 -39 -5 0 -10
-13 -10 -29 0 -17 -4 -33 -10 -36 -5 -3 -10 -19 -10 -35 0 -16 -4 -32 -10 -35
-5 -3 -10 -17 -10 -30 0 -13 -5 -27 -10 -30 -5 -3 -10 -17 -10 -30 0 -13 -4
-27 -10 -30 -5 -3 -10 -19 -10 -35 0 -16 -4 -32 -10 -35 -5 -3 -10 -19 -10
-35 0 -16 5 -32 10 -35 6 -3 10 -17 10 -31 0 -16 15 -40 43 -68 46 -47 65 -57
117 -61 141 -13 203 85 309 486 90 340 112 569 141 1513 5 176 11 320 12 322
2 1 109 8 238 14 129 6 252 15 274 20 69 15 126 87 126 160 0 85 -50 148 -371
476 -254 259 -312 330 -335 413 -65 232 -169 457 -284 611 -297 397 -711 625
-1210 670 -128 11 -164 11 -296 -1z m-2308 -2416 c24 -25 44 -50 44 -55 0 -4
14 -22 30 -40 17 -17 30 -36 30 -42 0 -6 9 -18 20 -26 11 -8 20 -19 20 -25 0
-6 8 -20 18 -31 16 -19 23 -31 55 -86 6 -13 14 -25 17 -28 10 -10 41 -65 47
-82 3 -10 9 -18 14 -18 5 0 9 -9 9 -20 0 -11 5 -20 10 -20 6 0 10 -9 10 -20 0
-11 5 -20 10 -20 6 0 10 -9 10 -20 0 -11 5 -20 10 -20 6 0 10 -9 10 -20 0 -11
5 -20 10 -20 6 0 10 -6 10 -13 0 -7 9 -32 20 -55 11 -22 20 -48 20 -57 0 -8 4
-15 8 -15 5 0 15 -23 22 -51 8 -27 18 -52 22 -55 4 -3 8 -14 8 -25 0 -10 4
-27 9 -37 15 -29 31 -87 31 -110 0 -12 5 -22 10 -22 6 0 10 -15 10 -33 0 -18
4 -37 9 -42 5 -6 11 -28 14 -50 4 -22 11 -65 17 -95 28 -141 33 -222 33 -520
-1 -318 -6 -428 -23 -465 -5 -11 -11 -39 -14 -62 -14 -106 -19 -129 -27 -137
-5 -6 -9 -25 -9 -43 0 -18 -4 -33 -10 -33 -5 0 -10 -10 -10 -22 0 -23 -16 -81
-31 -110 -5 -10 -9 -25 -9 -33 0 -8 -5 -25 -12 -38 -24 -48 -28 -57 -28 -77 0
-11 -4 -20 -10 -20 -5 0 -10 -7 -10 -15 0 -9 -9 -35 -20 -57 -11 -23 -20 -48
-20 -55 0 -7 -4 -13 -10 -13 -5 0 -10 -9 -10 -20 0 -11 -4 -20 -10 -20 -5 0
-10 -9 -10 -20 0 -11 -4 -20 -10 -20 -5 0 -10 -9 -10 -20 0 -11 -4 -20 -10
-20 -5 0 -10 -9 -10 -20 0 -11 -4 -20 -9 -20 -5 0 -11 -8 -14 -17 -8 -24 -40
-77 -49 -81 -5 -2 -8 -12 -8 -23 0 -10 -4 -19 -8 -19 -5 0 -15 -12 -23 -27 -8
-16 -22 -37 -31 -47 -10 -11 -18 -25 -18 -31 0 -6 -9 -17 -20 -25 -11 -8 -20
-19 -20 -25 0 -6 -8 -20 -18 -31 -10 -10 -28 -35 -42 -54 -13 -19 -36 -46 -50
-60 -14 -14 -37 -41 -50 -60 -31 -44 -227 -240 -300 -300 -30 -25 -66 -56 -80
-70 -14 -14 -41 -37 -60 -50 -19 -13 -42 -32 -51 -42 -9 -10 -21 -18 -26 -18
-6 0 -24 -13 -41 -30 -18 -16 -35 -30 -39 -30 -5 0 -24 -14 -43 -30 -19 -16
-39 -30 -43 -30 -4 0 -17 -9 -29 -20 -12 -11 -28 -20 -35 -20 -7 0 -13 -4 -13
-9 0 -5 -9 -13 -20 -16 -11 -3 -26 -12 -33 -18 -18 -17 -69 -47 -89 -54 -10
-3 -18 -9 -18 -14 0 -5 -9 -9 -20 -9 -11 0 -20 -3 -20 -7 0 -5 -10 -13 -23
-19 -60 -30 -112 -60 -115 -66 -2 -5 -12 -8 -23 -8 -10 0 -19 -4 -19 -10 0 -5
-6 -10 -14 -10 -8 0 -31 -9 -53 -20 -73 -37 -127 -60 -140 -60 -7 0 -13 -4
-13 -8 0 -5 -23 -15 -50 -22 -28 -7 -50 -16 -50 -20 0 -4 -23 -13 -51 -20 -27
-8 -52 -18 -55 -22 -3 -4 -16 -8 -29 -8 -13 0 -27 -4 -30 -10 -3 -5 -15 -10
-26 -10 -10 0 -27 -4 -37 -9 -9 -5 -37 -15 -62 -21 -25 -7 -54 -16 -65 -20
-11 -5 -33 -11 -50 -15 -16 -3 -48 -11 -70 -16 -22 -6 -57 -13 -78 -16 -20 -3
-40 -9 -43 -14 -3 -5 -24 -9 -48 -9 -23 0 -46 -4 -52 -9 -5 -5 -31 -12 -59
-15 -27 -3 -84 -10 -125 -16 -330 -45 -750 -45 -1080 0 -41 6 -97 13 -125 16
-27 3 -54 10 -60 15 -5 5 -28 9 -51 9 -24 0 -46 5 -49 10 -3 6 -21 10 -40 10
-19 0 -36 4 -39 9 -3 5 -23 11 -43 15 -90 13 -113 19 -113 27 0 5 -10 9 -21 9
-29 0 -172 46 -221 71 -10 5 -27 9 -38 9 -11 0 -20 5 -20 10 0 6 -11 10 -24
10 -14 0 -28 5 -31 10 -3 6 -15 10 -26 10 -10 0 -19 5 -19 10 0 6 -11 10 -24
10 -14 0 -28 5 -31 10 -3 6 -15 10 -26 10 -10 0 -19 5 -19 10 0 6 -9 10 -20
10 -11 0 -20 5 -20 10 0 6 -8 10 -19 10 -10 0 -24 7 -31 14 -9 12 15 41 140
166 l151 150 97 0 c126 -1 444 17 552 30 47 6 112 13 145 16 33 3 64 10 69 15
6 5 31 9 56 9 25 0 50 4 55 9 9 8 30 12 143 27 23 3 42 10 42 15 0 5 15 9 34
9 19 0 38 5 41 10 3 6 19 10 35 10 16 0 32 5 35 10 3 6 22 10 41 10 19 0 34 5
34 10 0 6 14 10 30 10 17 0 30 5 30 10 0 6 14 10 30 10 17 0 30 5 30 10 0 6
14 10 30 10 17 0 30 5 30 10 0 6 14 10 30 10 17 0 30 4 30 8 0 5 22 15 50 22
27 7 50 17 50 22 0 4 11 8 24 8 14 0 28 4 31 10 3 6 15 10 26 10 10 0 19 5 19
10 0 6 6 10 13 10 7 0 32 9 55 20 22 11 48 20 57 20 8 0 15 5 15 10 0 6 9 10
20 10 11 0 20 5 20 10 0 6 9 10 20 10 11 0 20 5 20 10 0 6 9 10 20 10 11 0 20
5 20 10 0 6 9 10 20 10 11 0 20 5 20 10 0 6 9 10 20 10 11 0 20 4 20 9 0 5 8
11 18 14 23 8 76 40 80 50 2 4 12 7 23 7 10 0 19 5 19 10 0 6 7 10 15 10 9 0
25 9 37 20 12 11 28 20 35 20 7 0 13 5 13 10 0 6 6 10 13 10 7 0 23 9 35 20
12 11 28 20 37 20 8 0 15 4 15 8 0 5 12 15 28 23 15 8 34 22 43 31 9 10 20 18
25 18 5 0 25 14 44 30 19 16 38 30 43 30 4 0 21 14 39 30 17 17 35 30 41 30 5
0 17 8 26 18 9 10 32 29 51 42 19 14 49 39 67 56 17 18 49 45 69 60 51 39 330
318 374 374 19 25 42 52 50 60 9 8 27 31 40 50 13 19 32 42 42 51 10 9 18 20
18 25 0 5 14 25 30 44 16 19 30 41 30 48 0 6 4 12 8 12 5 0 15 12 23 28 8 15
22 36 32 46 9 11 17 26 17 33 0 7 4 13 9 13 5 0 11 8 14 18 8 23 40 76 50 80
4 2 7 12 7 22 0 10 3 20 8 22 10 4 112 210 112 226 0 6 5 12 10 12 6 0 10 7
10 15 0 8 5 24 10 35 6 11 15 29 20 40 6 11 10 27 10 35 0 8 5 15 10 15 6 0
10 14 10 30 0 17 5 30 10 30 6 0 10 11 10 24 0 14 5 28 10 31 6 3 10 17 10 30
0 13 5 27 10 30 6 3 10 19 10 36 0 16 4 29 9 29 5 0 11 15 14 33 9 54 18 91
27 112 8 20 16 55 26 125 3 19 9 44 14 55 5 11 12 45 15 75 3 30 10 93 17 140
6 47 11 216 11 375 1 258 -5 352 -29 512 -6 41 -5 42 78 126 45 47 85 86 86
86 2 1 24 -20 48 -46z m-580 -689 c-6 -182 -18 -330 -36 -434 -6 -36 -13 -83
-16 -105 -3 -22 -10 -44 -15 -49 -5 -6 -9 -27 -9 -47 0 -21 -4 -41 -10 -44 -5
-3 -10 -19 -10 -35 0 -16 -4 -32 -10 -35 -5 -3 -10 -19 -10 -35 0 -16 -4 -32
-10 -35 -5 -3 -10 -17 -10 -30 0 -13 -4 -27 -10 -30 -5 -3 -10 -15 -10 -26 0
-10 -4 -27 -9 -37 -5 -9 -14 -29 -20 -44 -13 -34 -24 -59 -48 -117 -25 -63
-140 -288 -153 -301 -3 -3 -11 -16 -19 -30 -8 -14 -19 -34 -25 -44 -6 -11 -19
-29 -28 -40 -10 -11 -18 -26 -18 -33 0 -7 -4 -13 -8 -13 -5 0 -15 -12 -23 -27
-8 -15 -26 -41 -41 -57 -16 -16 -28 -33 -28 -38 0 -6 -13 -22 -28 -36 -15 -15
-39 -43 -52 -62 -30 -44 -341 -355 -395 -395 -22 -16 -47 -37 -55 -45 -8 -9
-31 -27 -50 -40 -19 -14 -48 -37 -64 -52 -16 -16 -34 -28 -40 -28 -6 0 -18 -9
-26 -20 -8 -11 -19 -20 -25 -20 -5 0 -26 -14 -45 -30 -19 -16 -41 -30 -47 -30
-7 0 -13 -4 -13 -10 0 -5 -6 -10 -13 -10 -7 0 -22 -8 -33 -17 -19 -17 -31 -24
-86 -55 -13 -7 -25 -15 -28 -18 -10 -10 -65 -41 -82 -47 -10 -3 -18 -9 -18
-14 0 -5 -9 -9 -20 -9 -11 0 -20 -4 -20 -10 0 -5 -9 -10 -19 -10 -11 0 -21 -3
-23 -7 -4 -11 -128 -73 -144 -73 -8 0 -14 -4 -14 -10 0 -5 -9 -10 -20 -10 -11
0 -20 -4 -20 -10 0 -5 -9 -10 -20 -10 -11 0 -20 -4 -20 -10 0 -5 -7 -10 -15
-10 -14 0 -85 -28 -127 -51 -10 -5 -27 -9 -38 -9 -11 0 -20 -4 -20 -10 0 -5
-9 -10 -20 -10 -11 0 -28 -4 -38 -9 -49 -25 -192 -71 -221 -71 -11 0 -21 -4
-21 -9 0 -5 -16 -12 -35 -15 -19 -3 -51 -9 -70 -12 -19 -3 -38 -10 -41 -15 -3
-5 -22 -9 -43 -9 -20 0 -41 -4 -46 -9 -9 -8 -32 -13 -137 -27 -24 -3 -52 -9
-63 -14 -20 -9 -71 -15 -240 -29 -49 -4 -94 -8 -100 -10 -5 -2 -13 -3 -18 -2
-4 0 731 739 1634 1642 1077 1077 1644 1638 1651 1631 6 -6 8 -73 4 -178z
m-3271 -4514 c3 -5 23 -10 44 -10 20 0 41 -4 47 -9 5 -5 32 -12 59 -15 28 -3
79 -10 115 -16 126 -20 248 -31 475 -40 127 -5 239 -11 250 -12 15 -2 -70 -93
-357 -379 -207 -207 -393 -389 -414 -405 -21 -16 -52 -41 -68 -57 -16 -15 -35
-27 -42 -27 -8 0 -14 -4 -14 -9 0 -5 -8 -11 -17 -15 -10 -3 -47 -21 -83 -40
-36 -20 -73 -36 -82 -36 -10 0 -18 -4 -18 -10 0 -5 -13 -10 -30 -10 -16 0 -30
-4 -30 -10 0 -5 -15 -10 -33 -10 -18 0 -37 -4 -43 -9 -24 -23 -303 -32 -409
-13 -33 6 -77 14 -97 18 -21 3 -38 10 -38 15 0 5 -13 9 -30 9 -16 0 -30 5 -30
10 0 6 -8 10 -17 10 -27 0 -183 83 -183 97 0 7 217 231 483 497 458 460 484
484 519 485 20 1 40 -3 43 -9z m6535 -425 c62 -12 200 -76 243 -114 68 -59
125 -123 146 -164 8 -15 18 -27 23 -27 4 0 8 -7 8 -15 0 -8 5 -24 10 -35 6
-11 15 -29 20 -40 6 -11 10 -31 10 -44 0 -14 5 -28 10 -31 6 -4 10 -59 10
-131 l0 -125 -92 5 c-113 6 -180 15 -192 27 -6 5 -18 9 -27 9 -19 0 -102 41
-107 53 -2 4 -10 7 -18 7 -33 0 -203 174 -204 208 0 6 -4 12 -10 12 -5 0 -10
9 -10 20 0 11 -4 20 -10 20 -5 0 -10 7 -10 15 0 8 -4 23 -9 33 -27 53 -54 293
-36 322 7 12 176 9 245 -5z"/>
<path d="M8080 7550 c0 -5 -9 -10 -20 -10 -11 0 -20 -3 -20 -8 0 -4 -10 -12
-22 -17 -13 -6 -27 -20 -33 -32 -5 -13 -13 -23 -17 -23 -5 0 -8 -9 -8 -20 0
-11 -4 -20 -10 -20 -20 0 -11 -106 13 -152 27 -53 32 -57 83 -85 74 -40 182
-26 240 31 57 58 71 166 32 240 -29 51 -33 56 -86 84 -46 23 -152 32 -152 12z"/>
<path d="M8665 4070 c-3 -5 -13 -10 -22 -10 -21 0 -103 -83 -103 -104 0 -9 -4
-16 -10 -16 -5 0 -10 -24 -10 -54 0 -62 28 -124 75 -170 29 -28 32 -28 109
-23 102 8 144 29 174 87 19 36 22 56 18 97 -6 69 -62 177 -93 181 -13 2 -23 8
-23 13 0 12 -107 12 -115 -1z"/>
</g>
</svg>
